<?xml version="1.0" encoding="UTF-8"?>
<svg width="24px" height="24px" viewBox="0 0 24 24" version="1.1" xmlns="http://www.w3.org/2000/svg" xmlns:xlink="http://www.w3.org/1999/xlink">
    <title>Leaf Icon</title>
    <g id="Leaf" stroke="none" stroke-width="1" fill="none" fill-rule="evenodd">
        <path d="M22,3.74 C20.4288887,4.53512397 18.7955554,5.09678864 17.1,5.42 C14.9036458,5.82333333 12.7036458,5.82333333 10.5,5.42 C6.76666667,4.76 4.06666667,3.10333333 2.4,0.45 C2.28020022,0.262010461 2.06064927,0.161157507 1.84,0.19 C1.69627695,0.200564305 1.56215362,0.263417181 1.46676844,0.364858019 C1.37138325,0.466298857 1.32134959,0.602776078 1.33,0.74 C1.33,0.89 1.38,1.02 1.4,1.17 C1.64666667,2.27666667 2.04666667,3.34666667 2.6,4.38 C3.73333333,6.44 5.36666667,8.13333333 7.5,9.46 C8.76666667,10.26 10.1333333,10.8933333 11.6,11.36 C13.0406529,11.7671088 14.5286761,11.9855994 16.03,12.01 C16.7991794,12.0132449 17.5669536,11.9524601 18.3239352,11.8282613 L13.59,16.71 C13.4815429,16.8244851 13.4167901,16.9731415 13.41,17.13 C13.3968343,17.3062957 13.4663101,17.4775669 13.6,17.6 L13.7,17.7 L14.1,18.1 C14.2224331,18.2336899 14.3937043,18.3031657 14.57,18.29 C14.7268585,18.2832099 14.8755149,18.2184571 14.99,18.11 L19.81,13.29 C19.3747387,16.0504926 17.8605503,18.5583948 15.6,20.29 C15.4346883,20.4272736 15.354262,20.6324325 15.3851373,20.8366543 C15.4160126,21.040876 15.5544003,21.2146225 15.7465001,21.2917242 C15.9385999,21.3688258 16.1537455,21.3389042 16.32,21.21 C18.3643643,19.6232421 19.925637,17.5075659 20.82,15.11 C21.2955594,13.9006547 21.5969089,12.6349219 21.7157718,11.3477187 C22.5021981,8.85590127 22.5021981,6.22179873 21.7157718,3.73 L22,3.74 Z" id="Path" fill="#4A7A56" fill-rule="nonzero"></path>
    </g>
</svg> 